<svg width="28" height="28" viewBox="0 0 28 28" fill="none" xmlns="http://www.w3.org/2000/svg">
<path d="M23.7849 2H3.98044C2.88667 2 2 2.88667 2 3.98044V23.7849C2 24.8786 2.88667 25.7653 3.98044 25.7653H23.7849C24.8786 25.7653 25.7653 24.8786 25.7653 23.7849V3.98044C25.7653 2.88667 24.8786 2 23.7849 2Z" fill="white" stroke="white" stroke-width="4" stroke-linejoin="round"/>
<path d="M6.62097 6.84107C6.62097 5.9073 7.0035 5.01177 7.68441 4.3515C8.36532 3.69122 9.28883 3.32028 10.2518 3.32028H13.8826V10.3619H10.2518C9.28883 10.3619 8.36532 9.99092 7.68441 9.33064C7.0035 8.67036 6.62097 7.77484 6.62097 6.84107ZM6.62097 13.8826C6.62097 12.9489 7.0035 12.0533 7.68441 11.3931C8.36532 10.7328 9.28883 10.3619 10.2518 10.3619H13.8826V17.4034H10.2518C9.28883 17.4034 8.36532 17.0325 7.68441 16.3722C7.0035 15.7119 6.62097 14.8164 6.62097 13.8826ZM6.62097 20.9242C6.62097 19.9904 7.0035 19.0949 7.68441 18.4346C8.36532 17.7744 9.28883 17.4034 10.2518 17.4034H13.8826V20.9242C13.8826 21.858 13.5001 22.7535 12.8192 23.4138C12.1382 24.0741 11.2147 24.445 10.2518 24.445C9.28883 24.445 8.36532 24.0741 7.68441 23.4138C7.0035 22.7535 6.62097 21.858 6.62097 20.9242ZM13.8826 3.32028H17.5134C18.4764 3.32028 19.3999 3.69122 20.0808 4.3515C20.7617 5.01177 21.1442 5.9073 21.1442 6.84107C21.1442 7.77484 20.7617 8.67036 20.0808 9.33064C19.3999 9.99092 18.4764 10.3619 17.5134 10.3619H13.8826V3.32028Z" fill="white"/>
<path d="M13.8826 3.32028H10.2518C9.28883 3.32028 8.36532 3.69122 7.68441 4.3515C7.0035 5.01177 6.62097 5.9073 6.62097 6.84107C6.62097 7.77484 7.0035 8.67036 7.68441 9.33064C8.36532 9.99092 9.28883 10.3619 10.2518 10.3619M13.8826 3.32028V10.3619M13.8826 3.32028H17.5134C18.4764 3.32028 19.3999 3.69122 20.0808 4.3515C20.7617 5.01177 21.1442 5.9073 21.1442 6.84107C21.1442 7.77484 20.7617 8.67036 20.0808 9.33064C19.3999 9.99092 18.4764 10.3619 17.5134 10.3619H13.8826M13.8826 10.3619H10.2518M13.8826 10.3619V17.4034M10.2518 10.3619C9.28883 10.3619 8.36532 10.7328 7.68441 11.3931C7.0035 12.0533 6.62097 12.9489 6.62097 13.8826C6.62097 14.8164 7.0035 15.7119 7.68441 16.3722C8.36532 17.0325 9.28883 17.4034 10.2518 17.4034M13.8826 17.4034H10.2518M13.8826 17.4034V20.9242C13.8826 21.858 13.5001 22.7535 12.8192 23.4138C12.1382 24.0741 11.2147 24.445 10.2518 24.445C9.28883 24.445 8.36532 24.0741 7.68441 23.4138C7.0035 22.7535 6.62097 21.858 6.62097 20.9242C6.62097 19.9904 7.0035 19.0949 7.68441 18.4346C8.36532 17.7744 9.28883 17.4034 10.2518 17.4034" stroke="#000921" stroke-width="2" stroke-linejoin="round"/>
<path d="M13.2225 13.8826C13.2225 12.8321 13.6398 11.8247 14.3826 11.0819C15.1255 10.3391 16.1329 9.92175 17.1834 9.92175C18.2339 9.92175 19.2414 10.3391 19.9842 11.0819C20.727 11.8247 21.1443 12.8321 21.1443 13.8826C21.1443 14.9331 20.727 15.9406 19.9842 16.6834C19.2414 17.4262 18.2339 17.8435 17.1834 17.8435C16.1329 17.8435 15.1255 17.4262 14.3826 16.6834C13.6398 15.9406 13.2225 14.9331 13.2225 13.8826Z" fill="white" stroke="#000921" stroke-width="2" stroke-linejoin="round"/>
</svg>
