<svg width="29" height="28" viewBox="0 0 29 28" fill="none" xmlns="http://www.w3.org/2000/svg">
<path d="M24.0808 2H4.2764C3.18263 2 2.29596 2.88667 2.29596 3.98044V23.7849C2.29596 24.8786 3.18263 25.7653 4.2764 25.7653H24.0808C25.1746 25.7653 26.0613 24.8786 26.0613 23.7849V3.98044C26.0613 2.88667 25.1746 2 24.0808 2Z" fill="white" stroke="white" stroke-width="4" stroke-linejoin="round"/>
<path d="M12.0031 23.6148L12.0031 23.6112L11.9946 22.4346L11.9946 22.434C11.9881 21.6853 11.986 21.0911 11.986 20.6554V20.0613L11.4006 20.1627L11.0029 20.2317C10.7132 20.2764 10.4199 20.2941 10.1269 20.2845L10.1269 20.2845L10.1192 20.2843C9.73745 20.2776 9.35688 20.2401 8.98135 20.172C8.63167 20.1076 8.3031 19.9618 8.02281 19.7472L8.02284 19.7472L8.01809 19.7436C7.73916 19.5353 7.53195 19.2488 7.42287 18.9229L7.41565 18.9014L7.4065 18.8805L7.23108 18.4813L7.23122 18.4812L7.22595 18.47C7.06344 18.1237 6.85995 17.7978 6.61985 17.4991C6.49309 17.3226 6.345 17.1633 6.17947 17.0244C6.26903 17.0728 6.37071 17.1341 6.48533 17.2107C6.76557 17.4012 6.99833 17.644 7.18275 17.949C7.48112 18.4712 7.85194 18.8944 8.30839 19.1925C8.72448 19.4803 9.21722 19.639 9.72397 19.6492L9.72397 19.6493H9.73399C10.1405 19.6493 10.5097 19.6205 10.8327 19.5547L10.8333 19.5546C11.1448 19.4908 11.4475 19.3904 11.7349 19.2554L11.9812 19.1398L12.0178 18.8702C12.1109 18.1859 12.3544 17.7117 12.71 17.396L13.5663 16.6358L12.4267 16.5245C11.8477 16.4679 11.2739 16.3681 10.7102 16.2258C10.1761 16.0801 9.66262 15.8691 9.18163 15.598L9.18168 15.5979L9.17218 15.5928C8.68743 15.3331 8.25939 14.9822 7.9121 14.5604C7.58991 14.1594 7.30991 13.6169 7.08183 12.9109C6.84555 12.1193 6.73266 11.2969 6.74699 10.4718L6.74707 10.4718V10.4632C6.74707 9.1913 7.16394 8.12598 7.99533 7.24216L8.21621 7.00736L8.09351 6.70927C7.74954 5.87359 7.7399 4.92186 8.11799 3.82451C8.32254 3.83034 8.63305 3.8936 9.07934 4.06789C9.7404 4.32606 10.1967 4.5352 10.4661 4.69776L10.4661 4.69777L10.4696 4.69983C10.7747 4.88063 11.012 5.02953 11.1897 5.14915L11.3799 5.27725L11.6011 5.21658C12.6532 4.92807 13.7404 4.78337 14.8324 4.78656H14.8339C15.946 4.78656 17.0239 4.92885 18.065 5.21824L18.2777 5.27735L18.4646 5.16002L19.1235 4.74659C19.5503 4.49098 20.0575 4.24896 20.6495 4.02846L20.6504 4.02814C21.0566 3.87599 21.3414 3.82284 21.5318 3.82029C21.9229 4.92081 21.9179 5.8729 21.5726 6.70602L21.4488 7.00464L21.6703 7.24008C22.504 8.12619 22.9207 9.18946 22.9207 10.4632C22.9207 11.4036 22.8056 12.2192 22.5847 12.9167C22.359 13.6291 22.0755 14.1701 21.7494 14.5635C21.3948 14.9833 20.9627 15.3334 20.4757 15.5952L20.4756 15.5951L20.4668 15.6001C19.986 15.8713 19.4726 16.0822 18.9386 16.2279C18.3744 16.3695 17.8 16.4687 17.2205 16.5244L16.0457 16.6374L16.9441 17.4027C17.4005 17.7915 17.6796 18.4441 17.6796 19.4788V23.6127C17.6796 23.7253 17.6874 23.8368 17.7057 23.945H11.9721C11.9937 23.8368 12.0031 23.7258 12.0031 23.6148Z" fill="#000921" stroke="#000921"/>
</svg>
