<svg width="29" height="28" viewBox="0 0 29 28" fill="none" xmlns="http://www.w3.org/2000/svg">
<path d="M24.3155 2H4.51108C3.41731 2 2.53064 2.88667 2.53064 3.98044V23.7849C2.53064 24.8786 3.41731 25.7653 4.51108 25.7653H24.3155C25.4093 25.7653 26.2959 24.8786 26.2959 23.7849V3.98044C26.2959 2.88667 25.4093 2 24.3155 2Z" fill="white" stroke="white" stroke-width="4" stroke-linejoin="round"/>
<path d="M5.32654 8.26166L14.1803 16.562L23.034 8.26166" fill="white"/>
<path d="M5.32654 8.26166L14.1803 16.562L23.034 8.26166" stroke="#000921" stroke-width="2" stroke-linecap="round" stroke-linejoin="round"/>
<path d="M18.6072 23.2024H21.9273C22.2208 23.2024 22.5023 23.0858 22.7099 22.8782C22.9174 22.6707 23.034 22.3892 23.034 22.0957V6.60162C23.034 6.3081 22.9174 6.0266 22.7099 5.81905C22.5023 5.6115 22.2208 5.4949 21.9273 5.4949H18.6072V23.2024ZM6.43326 23.2024H9.75341V5.4949H6.43326C6.13974 5.4949 5.85824 5.6115 5.65069 5.81905C5.44314 6.0266 5.32654 6.3081 5.32654 6.60162V22.0957C5.32654 22.3892 5.44314 22.6707 5.65069 22.8782C5.85824 23.0858 6.13974 23.2024 6.43326 23.2024ZM18.6072 5.4949L14.1803 9.92177L9.75341 5.4949" fill="white"/>
<path d="M18.6072 5.4949H21.9273C22.2208 5.4949 22.5023 5.6115 22.7099 5.81905C22.9174 6.0266 23.034 6.3081 23.034 6.60162V22.0957C23.034 22.3892 22.9174 22.6707 22.7099 22.8782C22.5023 23.0858 22.2208 23.2024 21.9273 23.2024H18.6072V5.4949ZM18.6072 5.4949L14.1803 9.92177L9.75341 5.4949M9.75341 5.4949V23.2024H6.43326C6.13974 23.2024 5.85824 23.0858 5.65069 22.8782C5.44314 22.6707 5.32654 22.3892 5.32654 22.0957V6.60162C5.32654 6.3081 5.44314 6.0266 5.65069 5.81905C5.85824 5.6115 6.13974 5.4949 6.43326 5.4949H9.75341Z" stroke="#000921" stroke-width="2" stroke-linecap="round" stroke-linejoin="round"/>
</svg>
