<svg width="29" height="28" viewBox="0 0 29 28" fill="none" xmlns="http://www.w3.org/2000/svg">
<path d="M24.5502 2H4.74576C3.65199 2 2.76532 2.88667 2.76532 3.98044V23.7849C2.76532 24.8786 3.65199 25.7653 4.74576 25.7653H24.5502C25.644 25.7653 26.5306 24.8786 26.5306 23.7849V3.98044C26.5306 2.88667 25.644 2 24.5502 2Z" fill="white" stroke="white" stroke-width="4" stroke-linejoin="round"/>
<path d="M6.1942 7.77121H6.16126C5.81249 7.79301 5.46298 7.74257 5.13461 7.62305C4.80624 7.50352 4.50608 7.31749 4.25293 7.0766C3.99978 6.83572 3.79909 6.54516 3.66342 6.22312C3.52775 5.90108 3.46003 5.55451 3.4645 5.20509C3.46897 4.85567 3.54553 4.51094 3.68939 4.19248C3.83325 3.87401 4.0413 3.58868 4.30053 3.35435C4.55976 3.12001 4.86458 2.94172 5.1959 2.83063C5.52722 2.71954 5.8779 2.67806 6.226 2.70877C6.57477 2.6844 6.92481 2.73234 7.25419 2.84958C7.58357 2.96682 7.88518 3.15084 8.14012 3.39009C8.39506 3.62934 8.59783 3.91867 8.73572 4.23995C8.87362 4.56123 8.94366 4.90753 8.94146 5.25715C8.93927 5.60676 8.86488 5.95216 8.72296 6.27168C8.58104 6.5912 8.37465 6.87796 8.11673 7.11399C7.8588 7.35002 7.5549 7.53023 7.22408 7.64333C6.89325 7.75642 6.54263 7.79996 6.1942 7.77121ZM3.93841 11.1787H8.48178V24.8088H3.93841V11.1787ZM20.4081 11.1787C19.6426 11.1808 18.8874 11.3559 18.199 11.6908C17.5106 12.0258 16.9068 12.512 16.4327 13.1131V11.1787H11.8893V24.8088H16.4327V18.5617C16.4327 17.9592 16.672 17.3814 17.098 16.9554C17.5241 16.5294 18.1019 16.29 18.7044 16.29C19.3068 16.29 19.8847 16.5294 20.3107 16.9554C20.7367 17.3814 20.976 17.9592 20.976 18.5617V24.8088H25.5194V16.29C25.5194 14.9344 24.9809 13.6344 24.0223 12.6758C23.0638 11.7172 21.7637 11.1787 20.4081 11.1787Z" fill="#000921"/>
</svg>
